<?xml version="1.0" encoding="UTF-8"?>
<!-- کپی لازم برای splash در index.html؛ هنگام تغییر لوگو، با assets/images/logo-light.svg یکسان بماند. -->
<svg version="1.1" xmlns="http://www.w3.org/2000/svg" width="320" height="320">
<path d="M0 0 C0.91366837 -0.0071553 1.82733673 -0.01431061 2.76869202 -0.02168274 C4.28484856 -0.02571609 4.28484856 -0.02571609 5.83163452 -0.02983093 C7.41968147 -0.03968773 7.41968147 -0.03968773 9.03981018 -0.04974365 C12.56595932 -0.06955142 16.0920655 -0.08116249 19.61825562 -0.09111023 C20.82323071 -0.09518576 22.0282058 -0.09926128 23.26969528 -0.10346031 C29.66061992 -0.12436359 36.05152288 -0.13864072 42.44247437 -0.147995 C49.01804635 -0.15900326 55.59327466 -0.19332616 62.16872597 -0.23316669 C67.24258001 -0.25944799 72.31635413 -0.26769757 77.39027023 -0.27127647 C79.8117235 -0.27612122 82.23317372 -0.2876742 84.65456009 -0.30631447 C105.98385341 -0.46015992 124.19080502 1.15384037 140.37216187 16.64717102 C159.54409452 36.66354443 176.76669312 76.17875512 176.76669312 104.14717102 C175.65447388 104.70066223 174.54225464 105.25415344 173.39633179 105.82441711 C169.16998759 107.92836591 164.94508181 110.03519022 160.72055054 112.14277649 C158.91070509 113.04522347 157.10049797 113.94694557 155.28988647 114.84785461 C144.1582643 120.38736078 133.09728938 126.03757056 122.10922241 131.85664368 C118.27863853 133.88328279 114.42910468 135.86782348 110.56747437 137.83467102 C73.61141006 155.70106893 73.61141006 155.70106893 49.51669312 187.27217102 C47.67519882 196.78655821 47.46189002 206.72278202 52.76669312 215.14717102 C59.21239356 223.18880211 68.62047532 225.74862035 78.51930237 226.93685722 C82.38358122 227.29848155 86.24132243 227.32564466 90.12020874 227.35249329 C91.01870544 227.36239288 91.91720215 227.37229248 92.84292603 227.38249207 C95.78623908 227.41385307 98.72956822 227.43876309 101.67294312 227.46357727 C103.72417601 227.48416878 105.77540486 227.50516581 107.82662964 227.52655029 C113.20562457 227.58154414 118.58465635 227.63105278 123.9637146 227.67939758 C129.46057383 227.72977903 134.95738005 227.78537792 140.45419312 227.8405304 C151.22498109 227.94783417 161.99581523 228.04933998 172.76669312 228.14717102 C172.95021765 237.02895737 172.37113614 245.81234129 171.67294312 254.65888977 C171.56047692 256.12287647 171.44838228 257.58689175 171.3366394 259.05093384 C171.04440945 262.86677253 170.74720145 266.68220697 170.44888306 270.49757385 C170.14420477 274.40592777 169.84433546 278.31465047 169.54403687 282.2233429 C168.95624126 289.86498362 168.3631755 297.50620291 167.76669312 305.14717102 C155.85604653 305.19384997 143.9454223 305.22921865 132.0347023 305.25079536 C126.50197327 305.26115965 120.96930758 305.2751816 115.43661499 305.29804993 C110.08085268 305.32004425 104.72515066 305.33179467 99.36934662 305.33692551 C97.34279178 305.3405742 95.31623962 305.34769632 93.289711 305.35863113 C76.48440301 305.44556685 59.4019437 305.09791375 43.01669312 300.95967102 C42.1538269 300.74681458 41.29096069 300.53395813 40.40194702 300.31465149 C19.54248578 294.89265593 0.79200913 283.76928097 -11.23330688 265.52217102 C-21.73951242 247.57082725 -25.63838108 228.99987679 -25.54580688 208.33467102 C-25.54365173 207.67730957 -25.54149658 207.01994812 -25.53927612 206.34266663 C-25.37999436 176.01560391 -14.26076522 150.19643882 6.95419312 128.52217102 C11.39755313 124.12681534 16.06959638 120.13289316 21.07919312 116.39717102 C21.60988403 115.99804504 22.14057495 115.59891907 22.68734741 115.18769836 C34.95329501 106.401791 48.93019016 99.93860665 62.4715271 93.4054718 C65.12399875 92.12555055 67.77271776 90.83809953 70.42098999 89.54951477 C72.11544391 88.72747225 73.81009766 87.90584149 75.50497437 87.08467102 C76.29237503 86.70246399 77.0797757 86.32025696 77.89103699 85.9264679 C78.98444649 85.3995636 78.98444649 85.3995636 80.09994507 84.86201477 C80.73785477 84.55384827 81.37576447 84.24568176 82.03300476 83.92817688 C83.76669312 83.14717102 83.76669312 83.14717102 86.76669312 82.14717102 C86.65327777 79.73839845 86.65327777 79.73839845 85.76669312 77.14717102 C81.39273654 73.54623351 77.24120018 73.70550171 71.84555054 73.71479797 C70.51309296 73.6995105 70.51309296 73.6995105 69.15371704 73.68391418 C66.22646774 73.65379335 63.29954575 73.64451958 60.37216187 73.63545227 C58.3390545 73.61860492 56.30595754 73.60045461 54.27287292 73.58105469 C48.92835748 73.53355474 43.58388425 73.50374523 38.23922729 73.47761536 C32.78280296 73.44780991 27.32652409 73.40127949 21.87020874 73.3561554 C11.16911296 73.27012226 0.46798723 73.20277691 -10.23330688 73.14717102 C-9.72303438 61.74552616 -9.1933616 50.35429021 -8.29580688 38.97529602 C-8.21080933 37.8753833 -8.12581177 36.77547058 -8.03823853 35.64222717 C-7.86170215 33.3708006 -7.68357374 31.09949717 -7.5038147 28.82832336 C-7.22818195 25.33216571 -6.96103083 21.83541994 -6.69424438 18.33857727 C-6.52026865 16.11327744 -6.34580876 13.88801539 -6.17080688 11.66279602 C-6.09161011 10.61827271 -6.01241333 9.57374939 -5.93081665 8.49757385 C-5.85403687 7.54437256 -5.77725708 6.59117126 -5.69815063 5.60908508 C-5.63232788 4.76863647 -5.56650513 3.92818787 -5.49868774 3.06227112 C-5.00051397 -0.53276075 -3.2308183 0.0172986 0 0 Z " fill="#FEFEFE" transform="translate(77.23330688476563,7.8528289794921875)"/>
</svg>
